# xmcd
#
# Track frame offsets:
# 150
# 18172
# 24222
# 42536
# 52259
# 98364
# 108250
# 118257
# 130020
# 168553
# 174426
# 207912
# 218260
#
# Disc length: 3031 seconds
#
# Revision: 0
# Processed by: cddbd v1.4PL0 Copyright (c) Steve Scherf et al.
# Submitted via: Audion 3.0.2 (http://www.panic.com/audion/)
#
DISCID=a40bd50d
DTITLE=tetuzi akiyama - don't forget to boogie
DYEAR=1900
DGENRE=
TTITLE0=it's a boogie thing
TTITLE1=with black thompson
TTITLE2=doll house shakin'
TTITLE3=money, love rock
TTITLE4=dead or...
TTITLE5=oh, johnny
TTITLE6=blues for dirty hunter
TTITLE7=she's a b-girl
TTITLE8=fast machine
TTITLE9=way over the bridge
TTITLE10=don't forget to boogie
TTITLE11=acid highway
TTITLE12=city of gold
EXTD=
EXTT0=
EXTT1=
EXTT2=
EXTT3=
EXTT4=
EXTT5=
EXTT6=
EXTT7=
EXTT8=
EXTT9=
EXTT10=
EXTT11=
EXTT12=
PLAYORDER=
